#tb 0: 1/22050
#media_type 0: audio
#codec_id 0: pcm_s16le
#sample_rate 0: 22050
#channel_layout 0: 4
0,          0,          0,    61740,   123480, 0x3a794c13
0,      61740,      61740,     2205,     4410, 0x109d04e0
0,      63945,      63945,     2205,     4410, 0x224d244f
0,      66150,      66150,     2205,     4410, 0xbb72413d
0,      68355,      68355,     2205,     4410, 0xaa5f5b86
0,      70560,      70560,     2205,     4410, 0x94e7aea7
0,      72765,      72765,     2205,     4410, 0xad497ca0
0,      74970,      74970,     2205,     4410, 0x1de10c9e
0,      77175,      77175,     2205,     4410, 0x9f55efa8
0,      79380,      79380,     2205,     4410, 0x220a072a
0,      81585,      81585,     2205,     4410, 0xa7dafb29
0,      83790,      83790,     2205,     4410, 0xd5e29c7a
0,      85995,      85995,     2205,     4410, 0xb8465006
0,      88200,      88200,     2205,     4410, 0x518669c7
0,      90405,      90405,     2205,     4410, 0xb5b5efca
0,      92610,      92610,     2205,     4410, 0x8600015d
0,      94815,      94815,     2205,     4410, 0xe2f68fe9
0,      97020,      97020,     2205,     4410, 0x8d3458d9
0,      99225,      99225,     2205,     4410, 0xf1ff4775
0,     101430,     101430,     2205,     4410, 0x830f67c9
0,     103635,     103635,     2205,     4410, 0x110e0bc1
0,     105840,     105840,     2205,     4410, 0x71682f47
0,     108045,     108045,     2205,     4410, 0x38119095
0,     110250,     110250,     2205,     4410, 0xd2494db6
0,     112455,     112455,     2205,     4410, 0x8b552509
0,     114660,     114660,     2205,     4410, 0x71e52909
0,     116865,     116865,     2205,     4410, 0x9f0a6f4d
0,     119070,     119070,     2205,     4410, 0x901302f2
0,     121275,     121275,     2205,     4410, 0x855d5222
0,     123480,     123480,     2205,     4410, 0x324bb2fe
0,     125685,     125685,     2205,     4410, 0xe85f583f
0,     127890,     127890,     2205,     4410, 0x2cbc67c4
0,     130095,     130095,     2205,     4410, 0xc82e6aa1
0,     132300,     132300,     2205,     4410, 0xb9fc423c
0,     134505,     134505,     2205,     4410, 0x6b9b4ef9
0,     136710,     136710,     2205,     4410, 0x39290f10
0,     138915,     138915,     2205,     4410, 0xad718eb4
0,     141120,     141120,     2205,     4410, 0x82f463ac
0,     143325,     143325,     2205,     4410, 0xfac87cac
0,     145530,     145530,     2205,     4410, 0x9e8bcca7
0,     147735,     147735,     2205,     4410, 0x52f79c99
0,     149940,     149940,     2205,     4410, 0xf2d14de2
0,     152145,     152145,     2205,     4410, 0x367f95e1
0,     154350,     154350,     2205,     4410, 0x8bfac293
0,     156555,     156555,     2205,     4410, 0x01ea5040
0,     158760,     158760,     2205,     4410, 0x8ff5e212
0,     160965,     160965,     2205,     4410, 0x93f32824
0,     163170,     163170,     2205,     4410, 0x998f90dc
0,     165375,     165375,     2205,     4410, 0x65231170
0,     167580,     167580,     2205,     4410, 0xc79039a1
0,     169785,     169785,     2205,     4410, 0x0b0e58bd
0,     171990,     171990,     2205,     4410, 0xc24ab4fa
0,     174195,     174195,     2205,     4410, 0xd3796a8e
0,     176400,     176400,     2205,     4410, 0xa37f8295
0,     178605,     178605,     2205,     4410, 0xb760fed7
0,     180810,     180810,     2205,     4410, 0x05495a34
0,     183015,     183015,     2205,     4410, 0x6f203437
0,     185220,     185220,     2205,     4410, 0x71299402
0,     187425,     187425,     2205,     4410, 0x72e7b346
0,     189630,     189630,     2205,     4410, 0x879b0dae
0,     191835,     191835,     2205,     4410, 0x041aa1bd
0,     194040,     194040,     2205,     4410, 0x18a962e6
0,     196245,     196245,     2205,     4410, 0x21d20539
0,     198450,     198450,     2205,     4410, 0x8f449267
0,     200655,     200655,     2205,     4410, 0xecdc01d6
0,     202860,     202860,     2205,     4410, 0x458abd5a
0,     205065,     205065,     2205,     4410, 0xa070ea63
0,     207270,     207270,     2205,     4410, 0xc25b26ce
0,     209475,     209475,     2205,     4410, 0x4d9237ca
0,     211680,     211680,     2205,     4410, 0x748e1801
0,     213885,     213885,     2205,     4410, 0xc96b69e6
0,     216090,     216090,     2205,     4410, 0x6663186c
0,     218295,     218295,     2205,     4410, 0x7f6d3081
0,     220500,     220500,     2205,     4410, 0x1a0343b5
0,     222705,     222705,     2205,     4410, 0xc48e338c
0,     224910,     224910,     2205,     4410, 0x26fc03c8
0,     227115,     227115,     2205,     4410, 0x69be7e2d
0,     229320,     229320,     2205,     4410, 0x69a74da1
0,     231525,     231525,     2205,     4410, 0x85bd2ab3
0,     233730,     233730,     2205,     4410, 0xeff05426
0,     235935,     235935,     2205,     4410, 0x292829e0
0,     238140,     238140,     2205,     4410, 0x8f741798
0,     240345,     240345,     2205,     4410, 0x6b9337e9
0,     242550,     242550,     2205,     4410, 0xe4e1703f
0,     244755,     244755,     2205,     4410, 0x043d6c35
0,     246960,     246960,     2205,     4410, 0x3a8988e7
0,     249165,     249165,     2205,     4410, 0x1fa7d2a9
0,     251370,     251370,     2205,     4410, 0xe28799e3
0,     253575,     253575,     2205,     4410, 0xc2df4470
0,     255780,     255780,     2205,     4410, 0x694d0cf5
0,     257985,     257985,     2205,     4410, 0x5aac2dcf
0,     260190,     260190,     2205,     4410, 0x259fa2db
0,     262395,     262395,     2205,     4410, 0xd16d6803
0,     264600,     264600,     2205,     4410, 0xa4b3478a
0,     266805,     266805,     2205,     4410, 0xdbe0443d
0,     269010,     269010,     2205,     4410, 0x26c16119
0,     271215,     271215,     2205,     4410, 0x0c06475c
0,     273420,     273420,     2205,     4410, 0x6ffaba2d
0,     275625,     275625,     2205,     4410, 0x5b287192
0,     277830,     277830,     2205,     4410, 0xf2cf2651
0,     280035,     280035,     2205,     4410, 0x3857673a
0,     282240,     282240,     2205,     4410, 0x5b555feb
0,     284445,     284445,     2205,     4410, 0x93f997af
0,     286650,     286650,     2205,     4410, 0xb3ba8d35
0,     288855,     288855,     2205,     4410, 0x66433944
0,     291060,     291060,     2205,     4410, 0xf0005a5f
0,     293265,     293265,     2205,     4410, 0xb948541f
0,     295470,     295470,     2205,     4410, 0xc8f1b16f
0,     297675,     297675,     2205,     4410, 0x7d4b7506
0,     299880,     299880,     2205,     4410, 0xac723c55
0,     302085,     302085,     2205,     4410, 0x2926fab5
0,     304290,     304290,     2205,     4410, 0x31684995
0,     306495,     306495,     2205,     4410, 0x35ebfca4
0,     308700,     308700,     2205,     4410, 0x9cd42c18
0,     310905,     310905,     2205,     4410, 0xd7ecd7b1
0,     313110,     313110,     2205,     4410, 0x5e13c602
0,     315315,     315315,     2205,     4410, 0xe955b5e3
0,     317520,     317520,     2205,     4410, 0xefad19a1
0,     319725,     319725,     2205,     4410, 0x435950de
0,     321930,     321930,     2205,     4410, 0x9d624ebe
0,     324135,     324135,     2205,     4410, 0x774a9158
0,     326340,     326340,     2205,     4410, 0x8c41e66a
0,     328545,     328545,     2205,     4410, 0x70112740
0,     330750,     330750,     2205,     4410, 0x55abc7a2
0,     332955,     332955,     2205,     4410, 0x0ec3183c
0,     335160,     335160,     2205,     4410, 0x54609c56
0,     337365,     337365,     2205,     4410, 0x60d49f92
0,     339570,     339570,     2205,     4410, 0x5fb061c8
0,     341775,     341775,     2205,     4410, 0x6e119c98
0,     343980,     343980,     2205,     4410, 0x3f39fc69
0,     346185,     346185,     2205,     4410, 0xef466d0e
0,     348390,     348390,     2205,     4410, 0xf4cb6fe1
0,     350595,     350595,     2205,     4410, 0xc4434439
0,     352800,     352800,     2205,     4410, 0xd02329d2
0,     355005,     355005,     2205,     4410, 0x216cffaf
0,     357210,     357210,     2205,     4410, 0x7e59e8c1
0,     359415,     359415,     2205,     4410, 0xc7c3346d
0,     361620,     361620,     2205,     4410, 0x5b3723af
0,     363825,     363825,     2205,     4410, 0x76097270
0,     366030,     366030,     2205,     4410, 0xae39a233
0,     368235,     368235,     2205,     4410, 0x686a471c
0,     370440,     370440,     2205,     4410, 0x3af3c5e0
0,     372645,     372645,     2205,     4410, 0x11ac711e
0,     374850,     374850,     2205,     4410, 0xcd8da8ce
0,     377055,     377055,     2205,     4410, 0x21296e3a
0,     379260,     379260,     2205,     4410, 0x77168188
0,     381465,     381465,     2205,     4410, 0x5fcf59cd
0,     383670,     383670,     2205,     4410, 0x390c8717
0,     385875,     385875,     2205,     4410, 0x3d5d5b3c
0,     388080,     388080,     2205,     4410, 0x3b8f13d3
0,     390285,     390285,     2205,     4410, 0x5b002c2f
0,     392490,     392490,     2205,     4410, 0x9e1d2b08
0,     394695,     394695,     2205,     4410, 0x69454ebd
0,     396900,     396900,     2205,     4410, 0x62a54bec
0,     399105,     399105,     2205,     4410, 0x4d231fdb
0,     401310,     401310,     2205,     4410, 0x65624ff7
0,     403515,     403515,     2205,     4410, 0x6fc66932
0,     405720,     405720,     2205,     4410, 0x23200cf6
0,     407925,     407925,     2205,     4410, 0xf8033122
0,     410130,     410130,     2205,     4410, 0x0fce0744
0,     412335,     412335,     2205,     4410, 0x9302683e
0,     414540,     414540,     2205,     4410, 0xd2380245
0,     416745,     416745,     2205,     4410, 0x482e0872
0,     418950,     418950,     2205,     4410, 0xe98e6461
0,     421155,     421155,     2205,     4410, 0x1db404e3
0,     423360,     423360,     2205,     4410, 0x47a26d45
0,     425565,     425565,     2205,     4410, 0x449a348a
0,     427770,     427770,     2205,     4410, 0xee874f84
0,     429975,     429975,     2205,     4410, 0xc4ecf965
0,     432180,     432180,     2205,     4410, 0xcc450bc8
0,     434385,     434385,     2205,     4410, 0xb18d044b
0,     436590,     436590,     2205,     4410, 0x895435e8
0,     438795,     438795,     2205,     4410, 0x57e7574e
0,     441000,     441000,     2205,     4410, 0x8041ad3d
0,     443205,     443205,     2205,     4410, 0x853d1616
0,     445410,     445410,     2205,     4410, 0xa11bb32b
0,     447615,     447615,     2205,     4410, 0xe10ea0de
0,     449820,     449820,     2205,     4410, 0xdf2ee328
0,     452025,     452025,     2205,     4410, 0xd5a6dcae
0,     454230,     454230,     2205,     4410, 0xd176c00b
0,     456435,     456435,     2205,     4410, 0x9cd6bcf3
0,     458640,     458640,     2205,     4410, 0x2569690a
0,     460845,     460845,     2205,     4410, 0x6824aa1d
0,     463050,     463050,     2205,     4410, 0xa9110afa
0,     465255,     465255,     2205,     4410, 0x115c25be
0,     467460,     467460,     2205,     4410, 0x1100f085
0,     469665,     469665,     2205,     4410, 0x00000000
0,     471870,     471870,     2205,     4410, 0x00000000
0,     474075,     474075,     2205,     4410, 0x00000000
0,     476280,     476280,     2205,     4410, 0x00000000
0,     478485,     478485,     2205,     4410, 0x00000000
0,     480690,     480690,     2205,     4410, 0x00000000
0,     482895,     482895,     2205,     4410, 0x00000000
0,     485100,     485100,     2205,     4410, 0x00000000
0,     487305,     487305,     2205,     4410, 0x00000000
0,     489510,     489510,     2205,     4410, 0x00000000
0,     491715,     491715,     2205,     4410, 0x00000000
0,     493920,     493920,     2205,     4410, 0x00000000
0,     496125,     496125,     2205,     4410, 0x00000000
0,     498330,     498330,     2205,     4410, 0x00000000
0,     500535,     500535,     2205,     4410, 0x00000000
0,     502740,     502740,     2205,     4410, 0x00000000
0,     504945,     504945,     2205,     4410, 0x00000000
0,     507150,     507150,     2205,     4410, 0x00000000
0,     509355,     509355,     2205,     4410, 0x00000000
0,     511560,     511560,     2205,     4410, 0x00000000
0,     513765,     513765,     2205,     4410, 0x00000000
0,     515970,     515970,     2205,     4410, 0x00000000
0,     518175,     518175,     2205,     4410, 0x00000000
0,     520380,     520380,     2205,     4410, 0x00000000
0,     522585,     522585,     2205,     4410, 0x00000000
0,     524790,     524790,     2205,     4410, 0x00000000
0,     526995,     526995,     2205,     4410, 0x00000000
0,     529200,     529200,     2205,     4410, 0x00000000
0,     531405,     531405,     2205,     4410, 0x00000000
